<?xml version="1.0" encoding="UTF-8"?>
<svg version="1.1" xmlns="http://www.w3.org/2000/svg" width="32" height="32">
<path d="M0 0 C0.886875 0.37125 1.77375 0.7425 2.6875 1.125 C3.8321875 1.558125 3.8321875 1.558125 5 2 C5.99 1.34 6.98 0.68 8 0 C12.63847757 -0.50418234 15.25830619 0.22045603 19 3 C20.89469491 6.78938982 20.60682729 10.88182256 20 15 C17.20573296 21.4649647 12.24685141 26.73963914 6 30 C1.63326817 30.43667318 -1.75769485 27.42805013 -5.0625 24.79296875 C-9.78325819 20.42436389 -12.26616819 16.25018156 -12.5625 9.75 C-12.39003401 6.3477163 -12.18565492 5.25372839 -10.125 2.4375 C-6.51367331 -0.00545629 -4.37649375 -0.25744081 0 0 Z " fill="#DD2E44" transform="translate(12,1)"/>
</svg>
